<svg width="94" height="94" viewBox="0 0 94 94" fill="none" xmlns="http://www.w3.org/2000/svg">
<g filter="url(#filter0_d_1_1130)">
<rect x="25" y="25" width="43.8462" height="43.8462" rx="21.9231" fill="white"/>
</g>
<path d="M37.3616 50V42.3H40.5296C41.2116 42.3 41.7946 42.41 42.2786 42.63C42.7699 42.85 43.1476 43.1653 43.4116 43.576C43.6756 43.9867 43.8076 44.4743 43.8076 45.039C43.8076 45.6037 43.6756 46.0913 43.4116 46.502C43.1476 46.9127 42.7699 47.228 42.2786 47.448C41.7946 47.668 41.2116 47.778 40.5296 47.778H38.1536L38.7916 47.107V50H37.3616ZM38.7916 47.261L38.1536 46.568H40.4636C41.0942 46.568 41.5672 46.436 41.8826 46.172C42.2052 45.9007 42.3666 45.523 42.3666 45.039C42.3666 44.5477 42.2052 44.17 41.8826 43.906C41.5672 43.642 41.0942 43.51 40.4636 43.51H38.1536L38.7916 42.806V47.261ZM48.0081 50.077C47.4435 50.077 46.9338 49.9523 46.4791 49.703C46.0318 49.4463 45.6798 49.0943 45.4231 48.647C45.1665 48.1997 45.0381 47.6717 45.0381 47.063C45.0381 46.4543 45.1665 45.9263 45.4231 45.479C45.6798 45.0317 46.0318 44.6833 46.4791 44.434C46.9338 44.1847 47.4435 44.06 48.0081 44.06C48.4995 44.06 48.9395 44.17 49.3281 44.39C49.7168 44.6027 50.0248 44.929 50.2521 45.369C50.4795 45.809 50.5931 46.3737 50.5931 47.063C50.5931 47.745 50.4831 48.3097 50.2631 48.757C50.0431 49.197 49.7388 49.527 49.3501 49.747C48.9615 49.967 48.5141 50.077 48.0081 50.077ZM48.1731 48.9C48.5031 48.9 48.7965 48.8267 49.0531 48.68C49.3171 48.5333 49.5261 48.3207 49.6801 48.042C49.8415 47.7633 49.9221 47.437 49.9221 47.063C49.9221 46.6817 49.8415 46.3553 49.6801 46.084C49.5261 45.8053 49.3171 45.5927 49.0531 45.446C48.7965 45.2993 48.5031 45.226 48.1731 45.226C47.8431 45.226 47.5461 45.2993 47.2821 45.446C47.0255 45.5927 46.8165 45.8053 46.6551 46.084C46.5011 46.3553 46.4241 46.6817 46.4241 47.063C46.4241 47.437 46.5011 47.7633 46.6551 48.042C46.8165 48.3207 47.0255 48.5333 47.2821 48.68C47.5461 48.8267 47.8431 48.9 48.1731 48.9ZM49.9551 50V48.614L50.0101 47.052L49.9001 45.49V41.838H51.2641V50H49.9551ZM53.7009 50V43.796C53.7009 43.18 53.8805 42.6887 54.2399 42.322C54.6065 41.948 55.1272 41.761 55.8019 41.761C56.0439 41.761 56.2712 41.7867 56.4839 41.838C56.7039 41.8893 56.8872 41.97 57.0339 42.08L56.6599 43.114C56.5572 43.0333 56.4399 42.9747 56.3079 42.938C56.1759 42.894 56.0402 42.872 55.9009 42.872C55.6149 42.872 55.3985 42.9527 55.2519 43.114C55.1052 43.268 55.0319 43.5027 55.0319 43.818V44.478L55.0759 45.094V50H53.7009ZM52.7329 45.27V44.17H56.6489V45.27H52.7329Z" fill="#12C868"/>
<defs>
<filter id="filter0_d_1_1130" x="0" y="0" width="93.8462" height="93.8467" filterUnits="userSpaceOnUse" color-interpolation-filters="sRGB">
<feFlood flood-opacity="0" result="BackgroundImageFix"/>
<feColorMatrix in="SourceAlpha" type="matrix" values="0 0 0 0 0 0 0 0 0 0 0 0 0 0 0 0 0 0 127 0" result="hardAlpha"/>
<feOffset/>
<feGaussianBlur stdDeviation="12.5"/>
<feComposite in2="hardAlpha" operator="out"/>
<feColorMatrix type="matrix" values="0 0 0 0 0 0 0 0 0 0 0 0 0 0 0 0 0 0 0.05 0"/>
<feBlend mode="normal" in2="BackgroundImageFix" result="effect1_dropShadow_1_1130"/>
<feBlend mode="normal" in="SourceGraphic" in2="effect1_dropShadow_1_1130" result="shape"/>
</filter>
</defs>
</svg>
