<?xml version="1.0" encoding="utf-8"?><svg xmlns="http://www.w3.org/2000/svg" xmlns:xlink="http://www.w3.org/1999/xlink"><symbol viewBox="0 0 10 20" id="facebook" xmlns="http://www.w3.org/2000/svg"><path d="M2.65 19.6v-9.01H.2V7.348h2.45v-2.77C2.65 2.398 4.099.4 7.435.4c1.35 0 2.35.126 2.35.126l-.08 3.029s-1.018-.01-2.13-.01c-1.202 0-1.395.54-1.395 1.433v2.369H9.8l-.157 3.244H6.179V19.6H2.651z"/></symbol><symbol viewBox="0 0 23 22" id="home" xmlns="http://www.w3.org/2000/svg"><path d="M22.613 9.773L12.294.312a1.17 1.17 0 00-1.59 0L.386 9.772a1.189 1.189 0 00-.306 1.307c.175.461.611.76 1.1.76h1.65v9.478a.68.68 0 00.678.683h5.655a.68.68 0 00.679-.683v-5.754h3.324v5.754a.68.68 0 00.678.683h5.651a.68.68 0 00.679-.683v-9.479h1.648c.49 0 .921-.298 1.1-.759a1.192 1.192 0 00-.31-1.306z"/></symbol><symbol viewBox="0 0 94 94" id="icon-pdf" xmlns="http://www.w3.org/2000/svg"><g filter="url(#ca)"><rect x="25" y="25" width="43.846" height="43.846" rx="21.923"/></g><path d="M37.362 50v-7.7h3.168c.682 0 1.265.11 1.749.33.49.22.869.535 1.133.946.264.41.396.898.396 1.463 0 .565-.132 1.052-.396 1.463-.264.41-.642.726-1.133.946-.484.22-1.067.33-1.75.33h-2.375l.638-.671V50h-1.43zm1.43-2.739l-.638-.693h2.31c.63 0 1.103-.132 1.419-.396.322-.271.484-.649.484-1.133 0-.491-.162-.869-.484-1.133-.316-.264-.789-.396-1.42-.396h-2.31l.639-.704v4.455zm9.216 2.816a3.127 3.127 0 01-1.529-.374 2.809 2.809 0 01-1.056-1.056c-.257-.447-.385-.975-.385-1.584 0-.609.129-1.137.385-1.584a2.729 2.729 0 011.056-1.045c.455-.25.965-.374 1.53-.374.49 0 .93.11 1.32.33.388.213.696.539.923.979.227.44.341 1.005.341 1.694 0 .682-.11 1.247-.33 1.694-.22.44-.524.77-.913.99-.389.22-.836.33-1.342.33zm.165-1.177c.33 0 .623-.073.88-.22.264-.147.473-.36.627-.638.162-.279.242-.605.242-.979 0-.381-.08-.708-.242-.979a1.592 1.592 0 00-.627-.638 1.741 1.741 0 00-.88-.22c-.33 0-.627.073-.89.22-.258.147-.467.36-.628.638-.154.271-.23.598-.23.979 0 .374.076.7.23.979.161.279.37.491.627.638a1.8 1.8 0 00.891.22zm1.782 1.1v-1.386l.055-1.562-.11-1.562v-3.652h1.364V50h-1.309zm3.746 0v-6.204c0-.616.18-1.107.539-1.474.366-.374.887-.561 1.562-.561.242 0 .47.026.682.077.22.051.403.132.55.242l-.374 1.034a.994.994 0 00-.352-.176 1.279 1.279 0 00-.407-.066c-.286 0-.503.08-.65.242-.146.154-.22.389-.22.704v.66l.045.616V50H53.7zm-.968-4.73v-1.1h3.916v1.1h-3.916z"/><defs><filter id="ca" x="0" y="0" width="93.846" height="93.847" filterUnits="userSpaceOnUse" color-interpolation-filters="sRGB"><feFlood flood-opacity="0" result="BackgroundImageFix"/><feColorMatrix in="SourceAlpha" values="0 0 0 0 0 0 0 0 0 0 0 0 0 0 0 0 0 0 127 0" result="hardAlpha"/><feOffset/><feGaussianBlur stdDeviation="12.5"/><feComposite in2="hardAlpha" operator="out"/><feColorMatrix values="0 0 0 0 0 0 0 0 0 0 0 0 0 0 0 0 0 0 0.05 0"/><feBlend in2="BackgroundImageFix" result="effect1_dropShadow_1_1130"/><feBlend in="SourceGraphic" in2="effect1_dropShadow_1_1130" result="shape"/></filter></defs></symbol><symbol viewBox="0 0 20 20" id="instagram" xmlns="http://www.w3.org/2000/svg"><path d="M10 6.81A3.197 3.197 0 006.81 10 3.197 3.197 0 0010 13.19 3.197 3.197 0 0013.19 10 3.197 3.197 0 0010 6.81zM19.568 10c0-1.321.012-2.63-.063-3.949-.074-1.531-.423-2.89-1.543-4.01C16.84.918 15.482.57 13.95.497 12.63.423 11.321.435 10.002.435c-1.32 0-2.63-.012-3.948.062-1.532.074-2.891.424-4.011 1.544C.921 3.163.573 4.52.499 6.05.425 7.372.437 8.681.437 10S.425 12.63.5 13.949c.075 1.531.424 2.89 1.544 4.01 1.122 1.123 2.48 1.47 4.01 1.544 1.322.074 2.63.062 3.95.062 1.32 0 2.63.012 3.948-.062 1.532-.074 2.89-.424 4.01-1.544 1.123-1.122 1.47-2.479 1.544-4.01.077-1.319.063-2.628.063-3.949zM10 14.908A4.901 4.901 0 015.092 10 4.901 4.901 0 0110 5.092 4.901 4.901 0 0114.908 10 4.901 4.901 0 0110 14.908zm5.11-8.871a1.145 1.145 0 01-1.147-1.146c0-.634.512-1.147 1.146-1.147a1.145 1.145 0 01.811 1.958 1.146 1.146 0 01-.81.335z"/></symbol><symbol viewBox="0 0 20 17" id="twitter" xmlns="http://www.w3.org/2000/svg"><path d="M19.301 2.521a7.788 7.788 0 01-2.233.612 3.898 3.898 0 001.71-2.152 7.763 7.763 0 01-2.47.943 3.89 3.89 0 00-6.626 3.548 11.043 11.043 0 01-8.016-4.064A3.89 3.89 0 002.87 6.6a3.88 3.88 0 01-1.761-.486v.05a3.89 3.89 0 003.12 3.813 3.917 3.917 0 01-1.757.067 3.891 3.891 0 003.633 2.7 7.804 7.804 0 01-5.758 1.611 10.998 10.998 0 005.96 1.747c7.154 0 11.065-5.925 11.065-11.064 0-.167-.004-.336-.012-.503a7.906 7.906 0 001.94-2.011l.001-.003z"/></symbol><symbol viewBox="0 0 44 45" id="watsapp" xmlns="http://www.w3.org/2000/svg"><rect y=".577" width="43.846" height="43.846" rx="21.923"/><path d="M21.923 12.854c-5.325 0-9.646 4.321-9.646 9.647a9.62 9.62 0 001.857 5.695l-1.228 3.637 3.832-1.196a9.624 9.624 0 005.185 1.51c5.326 0 9.647-4.321 9.647-9.646 0-5.326-4.321-9.647-9.647-9.647zm4.417 14.82c-1.751.702-3.839.023-6.123-1.711-2.284-1.734-3.787-4.175-3.888-5.988-.101-1.812 1.374-2.727 2.177-2.721.802.005 1.683 2.57 1.695 2.963.01.398-.982 1.105-1.022 1.442-.039.337 1.353 1.998 1.942 2.447.584.443 1.79 1.296 2.413 1.217.617-.084 1.027-1.324 1.42-1.403.392-.078 2.536.988 2.75 1.263.212.28.19 1.874-1.364 2.491z"/></symbol></svg>